<svg width="98" height="52" viewBox="0 0 98 52" fill="none" xmlns="http://www.w3.org/2000/svg">
<g id="Group">
<path id="Fill 1" fill-rule="evenodd" clip-rule="evenodd" d="M36.5703 0.725586C36.018 0.725586 35.5703 1.1733 35.5703 1.72559V6.00054C35.5703 6.55282 36.018 7.00054 36.5703 7.00054H72.8973C83.0242 7.00054 90.9777 14.7972 90.9777 24.89V24.89C90.9777 25.1756 91.2092 25.4071 91.4948 25.4071H96.757C97.0425 25.4071 97.274 25.1756 97.274 24.89V24.89C97.274 11.4007 86.432 0.725586 72.8973 0.725586H36.5703Z" fill="#6B7B84" stroke="#80949F" stroke-width="0.5"/>
<path id="Fill 3" fill-rule="evenodd" clip-rule="evenodd" d="M7.10634 25.8455V25.8455C7.10634 25.6035 6.91011 25.4072 6.66805 25.4072H1.16388C0.921815 25.4072 0.725586 25.6035 0.725586 25.8455V25.8455C0.725586 39.4949 10.9488 50.7644 24.1682 51.5019L66.5099 51.5397C67.0625 51.5402 67.5108 51.0923 67.5108 50.5397V45.96C67.5108 45.4078 67.0631 44.96 66.5108 44.96H25.626C15.3898 44.9317 7.10634 36.4163 7.10634 25.8455Z" fill="#6B7B84" stroke="#80949F" stroke-width="0.5"/>
<g id="Fill 5">
<path fill-rule="evenodd" clip-rule="evenodd" d="M28.1415 39.9257C30.8803 39.9257 33.1616 39.3936 35.4149 38.2988L35.5704 38.1532V30.3188L34.7273 31.3982C33.1049 33.1711 30.9259 34.147 28.4608 34.147C23.8692 34.147 19.2575 31.1792 19.2575 25.5071C19.2575 21.2207 22.4381 16.6653 28.2993 16.6653C29.4688 16.6653 32.313 16.9418 34.7232 19.5013L35.5704 20.545V12.7461L35.4218 12.5986C33.1258 11.448 30.7843 10.8887 28.1137 10.8887C23.5467 10.8887 19.9821 12.091 17.1438 14.5622C15.3435 16.111 12.3408 19.5818 12.3408 25.4256C12.3408 29.7464 13.8793 33.1208 17.1669 36.0477C20.2252 38.7295 23.6163 39.9257 28.1415 39.9257" fill="#6B7B84"/>
<path d="M28.1415 39.9257C30.8803 39.9257 33.1616 39.3936 35.4149 38.2988L35.5704 38.1532V30.3188L34.7273 31.3982C33.1049 33.1711 30.9259 34.147 28.4608 34.147C23.8692 34.147 19.2575 31.1792 19.2575 25.5071C19.2575 21.2207 22.4381 16.6653 28.2993 16.6653C29.4688 16.6653 32.313 16.9418 34.7232 19.5013L35.5704 20.545V12.7461L35.4218 12.5986C33.1258 11.448 30.7843 10.8887 28.1137 10.8887C23.5467 10.8887 19.9821 12.091 17.1438 14.5622C15.3435 16.111 12.3408 19.5818 12.3408 25.4256C12.3408 29.7464 13.8793 33.1208 17.1669 36.0477C20.2252 38.7295 23.6163 39.9257 28.1415 39.9257" stroke="#80949F" stroke-width="0.5"/>
</g>
<g id="Fill 6">
<path fill-rule="evenodd" clip-rule="evenodd" d="M47.9103 17.422H49.2746C50.5261 17.422 51.9524 17.4903 53.032 18.2261C53.5591 18.6027 54.4436 19.4744 54.4436 21.0577C54.4436 22.2278 53.9266 23.2769 53.0725 23.9315C51.9775 24.7264 50.6759 24.6808 49.6301 24.6808H47.9103V17.422ZM50.976 29.9512C54.2074 29.9512 56.7368 29.0191 58.4933 27.2631C60.654 25.1068 60.977 22.1406 60.977 20.5768C60.977 18.9036 60.5803 15.6399 57.9202 13.2768C55.7398 11.3661 53.4132 10.8887 50.1314 10.8887H41.377V39.9257H48.0355V29.9512H50.976V29.9512Z" fill="#6B7B84"/>
<path d="M47.9103 17.422V17.172H47.6603V17.422H47.9103ZM53.032 18.2261L53.1773 18.0227L53.1728 18.0196L53.032 18.2261ZM53.0725 23.9315L53.2194 24.1339L53.2246 24.13L53.0725 23.9315ZM47.9103 24.6808H47.6603V24.9308H47.9103V24.6808ZM58.4933 27.2631L58.3167 27.0862L58.3166 27.0863L58.4933 27.2631ZM57.9202 13.2768L58.0863 13.0899L58.085 13.0888L57.9202 13.2768ZM41.377 10.8887V10.6387H41.127V10.8887H41.377ZM41.377 39.9257H41.127V40.1757H41.377V39.9257ZM48.0355 39.9257V40.1757H48.2855V39.9257H48.0355ZM48.0355 29.9512V29.7012H47.7855V29.9512H48.0355ZM47.9103 17.672H49.2746V17.172H47.9103V17.672ZM49.2746 17.672C50.5318 17.672 51.883 17.7455 52.8912 18.4327L53.1728 18.0196C52.0219 17.2351 50.5203 17.172 49.2746 17.172V17.672ZM52.8867 18.4296C53.3743 18.7779 54.1936 19.5827 54.1936 21.0577H54.6936C54.6936 19.3661 53.744 18.4275 53.1773 18.0227L52.8867 18.4296ZM54.1936 21.0577C54.1936 22.1537 53.7099 23.128 52.9204 23.7331L53.2246 24.13C54.1432 23.4258 54.6936 22.3019 54.6936 21.0577H54.1936ZM52.9257 23.7292C51.9083 24.4677 50.6963 24.4308 49.6301 24.4308V24.9308C50.6556 24.9308 52.0467 24.9851 53.2194 24.1339L52.9257 23.7292ZM49.6301 24.4308H47.9103V24.9308H49.6301V24.4308ZM48.1603 24.6808V17.422H47.6603V24.6808H48.1603ZM50.976 30.2012C54.2559 30.2012 56.8554 29.254 58.67 27.4399L58.3166 27.0863C56.6182 28.7842 54.1589 29.7012 50.976 29.7012V30.2012ZM58.6699 27.4401C60.902 25.2126 61.227 22.162 61.227 20.5768H60.727C60.727 22.1192 60.4061 25.0011 58.3167 27.0862L58.6699 27.4401ZM61.227 20.5768C61.227 18.8755 60.8253 15.5231 58.0863 13.0899L57.7542 13.4637C60.3353 15.7566 60.727 18.9316 60.727 20.5768H61.227ZM58.085 13.0888C55.839 11.1207 53.4408 10.6387 50.1314 10.6387V11.1387C53.3857 11.1387 55.6405 11.6115 57.7555 13.4648L58.085 13.0888ZM50.1314 10.6387H41.377V11.1387H50.1314V10.6387ZM41.127 10.8887V39.9257H41.627V10.8887H41.127ZM41.377 40.1757H48.0355V39.6757H41.377V40.1757ZM48.2855 39.9257V29.9512H47.7855V39.9257H48.2855ZM48.0355 30.2012H50.976V29.7012H48.0355V30.2012Z" fill="#80949F"/>
</g>
<g id="Fill 7">
<path fill-rule="evenodd" clip-rule="evenodd" d="M80.9525 24.602C79.5049 23.3194 77.4841 22.5758 75.1906 21.8046C73.5564 21.236 72.656 20.9227 72.0557 20.3754C71.582 19.9732 71.3707 19.5366 71.3707 18.9595C71.3707 17.6955 72.2296 16.3446 74.6409 16.3446C76.2796 16.3446 77.6517 17.0453 78.7192 18.4263L79.143 18.9747L82.6592 14.4989L82.3387 14.1778C80.1882 12.0257 77.3543 10.8887 74.1435 10.8887C67.6652 10.8887 64.7653 15.1032 64.7653 19.2801C64.7653 21.5215 65.5646 23.3293 67.1362 24.6508C68.5432 25.8567 70.259 26.5324 71.9049 27.084L72.091 27.1456C73.5525 27.6287 75.0641 28.1287 75.9669 28.9367C76.595 29.5138 76.8749 30.1409 76.8749 30.97C76.8749 32.8701 75.3786 34.147 73.1515 34.147C71.3911 34.147 69.0731 33.2841 67.8466 30.8629L67.5259 30.2286L63.1553 34.2744L63.413 34.639C64.8074 36.6134 67.954 39.9257 73.3589 39.9257C79.3186 39.9257 83.4812 36.0941 83.4812 30.6084C83.4812 27.4707 82.1046 25.6085 80.9525 24.602" fill="#6B7B84"/>
<path d="M80.9525 24.602C79.5049 23.3194 77.4841 22.5758 75.1906 21.8046C73.5564 21.236 72.656 20.9227 72.0557 20.3754C71.582 19.9732 71.3707 19.5366 71.3707 18.9595C71.3707 17.6955 72.2296 16.3446 74.6409 16.3446C76.2796 16.3446 77.6517 17.0453 78.7192 18.4263L79.143 18.9747L82.6592 14.4989L82.3387 14.1778C80.1882 12.0257 77.3543 10.8887 74.1435 10.8887C67.6652 10.8887 64.7653 15.1032 64.7653 19.2801C64.7653 21.5215 65.5646 23.3293 67.1362 24.6508C68.5432 25.8567 70.259 26.5324 71.9049 27.084L72.091 27.1456C73.5525 27.6287 75.0641 28.1287 75.9669 28.9367C76.595 29.5138 76.8749 30.1409 76.8749 30.97C76.8749 32.8701 75.3786 34.147 73.1515 34.147C71.3911 34.147 69.0731 33.2841 67.8466 30.8629L67.5259 30.2286L63.1553 34.2744L63.413 34.639C64.8074 36.6134 67.954 39.9257 73.3589 39.9257C79.3186 39.9257 83.4812 36.0941 83.4812 30.6084C83.4812 27.4707 82.1046 25.6085 80.9525 24.602" stroke="#80949F" stroke-width="0.5"/>
</g>
</g>
</svg>
